<svg width="24" height="24" viewBox="0 0 24 24" fill="none" xmlns="http://www.w3.org/2000/svg">
<path d="M15 22.75H9C3.57 22.75 1.25 20.43 1.25 15V9C1.25 3.57 3.57 1.25 9 1.25H11C11.41 1.25 11.75 1.59 11.75 2C11.75 2.41 11.41 2.75 11 2.75H9C4.39 2.75 2.75 4.39 2.75 9V15C2.75 19.61 4.39 21.25 9 21.25H15C19.61 21.25 21.25 19.61 21.25 15V13C21.25 12.59 21.59 12.25 22 12.25C22.41 12.25 22.75 12.59 22.75 13V15C22.75 20.43 20.43 22.75 15 22.75Z" fill="#292D32"/>
<path d="M8.49996 17.69C7.88996 17.69 7.32996 17.47 6.91996 17.07C6.42996 16.58 6.21996 15.87 6.32996 15.12L6.75996 12.11C6.83996 11.53 7.21996 10.78 7.62996 10.37L15.51 2.49C17.5 0.499998 19.52 0.499998 21.51 2.49C22.6 3.58 23.09 4.69 22.99 5.8C22.9 6.7 22.42 7.58 21.51 8.48L13.63 16.36C13.22 16.77 12.47 17.15 11.89 17.23L8.87996 17.66C8.74996 17.69 8.61996 17.69 8.49996 17.69ZM16.57 3.55L8.68996 11.43C8.49996 11.62 8.27996 12.06 8.23996 12.32L7.80996 15.33C7.76996 15.62 7.82996 15.86 7.97996 16.01C8.12996 16.16 8.36996 16.22 8.65996 16.18L11.67 15.75C11.93 15.71 12.38 15.49 12.56 15.3L20.44 7.42C21.09 6.77 21.43 6.19 21.48 5.65C21.54 5 21.2 4.31 20.44 3.54C18.84 1.94 17.74 2.39 16.57 3.55Z" fill="#292D32"/>
<path d="M19.8501 9.83C19.7801 9.83 19.7101 9.82 19.6501 9.8C17.0201 9.06 14.9301 6.97 14.1901 4.34C14.0801 3.94 14.3101 3.53 14.7101 3.41C15.1101 3.3 15.5201 3.53 15.6301 3.93C16.2301 6.06 17.9201 7.75 20.0501 8.35C20.4501 8.46 20.6801 8.88 20.5701 9.28C20.4801 9.62 20.1801 9.83 19.8501 9.83Z" fill="#292D32"/>
</svg>
